<?xml version="1.0" encoding="UTF-8"?>
<svg version="1.1" xmlns="http://www.w3.org/2000/svg" width="93" height="92">
<path d="M0 0 C6.30600879 5.47598712 11.0626364 11.26728798 14.28515625 18.984375 C14.69765625 19.87125 15.11015625 20.758125 15.53515625 21.671875 C16.36599124 24.23361621 16.33841164 26.30829175 16.28515625 28.984375 C9.55915603 29.06057513 2.83326757 29.11303792 -3.89306641 29.14916992 C-6.1802181 29.16423616 -8.467341 29.18469297 -10.75439453 29.21069336 C-14.04597082 29.24717106 -17.33716437 29.26412334 -20.62890625 29.27734375 C-22.15736679 29.30056953 -22.15736679 29.30056953 -23.71670532 29.32426453 C-30.09633075 29.32576949 -34.59548825 28.68781643 -39.58984375 24.359375 C-41.38245949 20.57496399 -41.44629648 17.08193057 -40.71484375 12.984375 C-38.72536291 9.45465093 -37.2669293 7.52163538 -33.37890625 6.17578125 C-31.15885311 5.66804039 -28.97336131 5.26976502 -26.71484375 4.984375 C-26.38484375 3.334375 -26.05484375 1.684375 -25.71484375 -0.015625 C-31.68401839 -0.51305622 -35.71654095 0.64128358 -40.71484375 3.984375 C-44.51055107 7.78008232 -46.66167003 11.69942075 -46.75 17.15625 C-46.38873402 22.4078237 -45.28394545 25.94565465 -41.71484375 29.984375 C-35.57879517 34.47786009 -30.33652254 34.58525711 -22.875 34.59375 C-21.75290634 34.61028625 -20.63081268 34.62682251 -19.47471619 34.64385986 C-15.90886915 34.69224528 -12.34344836 34.71369078 -8.77734375 34.734375 C-6.35219221 34.76254244 -3.92706044 34.79247094 -1.50195312 34.82421875 C4.4270062 34.89800186 10.35584612 34.94969983 16.28515625 34.984375 C16.32921983 37.38301536 16.3613562 39.78083631 16.38671875 42.1796875 C16.40033447 42.85427002 16.4139502 43.52885254 16.42797852 44.22387695 C16.47434184 50.07635501 15.30873769 54.05810368 12.28515625 58.984375 C11.86105469 59.73074219 11.43695313 60.47710937 11 61.24609375 C5.81271259 69.75671292 -1.40038088 76.33958518 -10.71484375 79.984375 C-11.78412109 80.43103516 -11.78412109 80.43103516 -12.875 80.88671875 C-24.65095123 85.15279791 -38.41983894 84.15943512 -49.71484375 78.984375 C-60.09017867 72.88599869 -68.6597289 64.51296599 -72.71484375 52.984375 C-73.12592463 50.32487164 -73.40713565 47.6586753 -73.71484375 44.984375 C-67.14957147 44.90808223 -60.58441427 44.8556734 -54.01879883 44.81958008 C-51.78698453 44.80452759 -49.55519965 44.78408102 -47.32348633 44.75805664 C-44.10881271 44.72151812 -40.89453147 44.70461285 -37.6796875 44.69140625 C-36.19177956 44.66818047 -36.19177956 44.66818047 -34.67381287 44.64448547 C-28.90463622 44.64309544 -24.78447443 45.14620704 -19.71484375 47.984375 C-17.02780518 51.51111312 -16.48733237 54.2866588 -16.71484375 58.609375 C-17.22397932 61.77025834 -17.59696415 62.84439298 -19.71484375 65.359375 C-23.5741322 67.44982291 -27.5061934 68.77404418 -31.71484375 69.984375 C-31.38484375 71.304375 -31.05484375 72.624375 -30.71484375 73.984375 C-25.13250191 74.54260918 -21.30009989 72.99222465 -16.71484375 69.984375 C-13.01873792 66.28826917 -10.77590031 62.36962231 -10.6796875 57.03515625 C-11.16489752 50.82210115 -13.6353202 46.8610182 -18.27734375 42.671875 C-21.81927776 40.21976684 -24.53595007 39.85166452 -28.73706055 39.77905273 C-30.26830818 39.7491349 -30.26830818 39.7491349 -31.83049011 39.71861267 C-32.930569 39.70190018 -34.03064789 39.68518768 -35.1640625 39.66796875 C-36.29181595 39.64718765 -37.4195694 39.62640656 -38.58149719 39.60499573 C-42.18838335 39.53954653 -45.79534304 39.48063656 -49.40234375 39.421875 C-51.84571077 39.37868539 -54.28907031 39.33507096 -56.73242188 39.29101562 C-62.72648449 39.18386984 -68.72062046 39.08209471 -74.71484375 38.984375 C-74.73191006 37.39001146 -74.74406126 35.79559483 -74.75415039 34.20117188 C-74.76144669 33.31328979 -74.76874298 32.42540771 -74.77626038 31.51062012 C-74.51276825 20.6724196 -68.85700224 11.41327095 -61.61328125 3.765625 C-44.79090348 -12.16510731 -18.64493782 -14.18834293 0 0 Z " fill="#F6F6F6" transform="translate(76.71484375,9.015625)"/>
<path d="M0 0 C0.66 0.33 1.32 0.66 2 1 C-2.29 5.29 -6.58 9.58 -11 14 C-11.66 13.67 -12.32 13.34 -13 13 C-11.58791833 11.39179588 -10.17013964 9.78859292 -8.75 8.1875 C-7.96109375 7.29417969 -7.1721875 6.40085937 -6.359375 5.48046875 C-4.34120555 3.35871775 -2.40083295 1.65745577 0 0 Z " fill="#D7D7D7" transform="translate(22,7)"/>
</svg>
