<svg width="35" height="35" viewBox="0 0 35 35" fill="none" xmlns="http://www.w3.org/2000/svg">
<path d="M18.9711 30.8984H9.06718C8.92214 30.8984 8.78304 30.8408 8.68049 30.7383C8.57793 30.6357 8.52031 30.4966 8.52031 30.3516C8.52031 30.2065 8.57793 30.0674 8.68049 29.9649C8.78304 29.8623 8.92214 29.8047 9.06718 29.8047H18.9711C19.1161 29.8047 19.2552 29.8623 19.3578 29.9649C19.4603 30.0674 19.518 30.2065 19.518 30.3516C19.518 30.4966 19.4603 30.6357 19.3578 30.7383C19.2552 30.8408 19.1161 30.8984 18.9711 30.8984Z" fill="#CCBE27"/>
<path d="M8.88126 30.9477C8.73622 30.9477 8.59712 30.8901 8.49456 30.7875C8.392 30.685 8.33438 30.5459 8.33438 30.4008C8.75001 18.9219 14.2188 11.7688 15.9031 9.84378C18.5938 6.78128 24.9047 2.94222 29.1758 1.78831C29.3139 1.75614 29.4591 1.77886 29.5807 1.85169C29.7024 1.92451 29.791 2.04174 29.8279 2.17865C29.8648 2.31557 29.8471 2.46145 29.7785 2.58554C29.7099 2.70963 29.5957 2.80222 29.4602 2.84378C25.3586 3.93753 19.2938 7.63441 16.7289 10.5711C15.0883 12.4196 9.80547 19.3211 9.42266 30.4227C9.41705 30.563 9.35771 30.6957 9.25693 30.7934C9.15615 30.8912 9.02164 30.9464 8.88126 30.9477Z" fill="#CCBE27"/>
<path d="M15.925 6.87418C15.8042 6.8738 15.6869 6.83342 15.5914 6.75933C15.4771 6.67069 15.4025 6.54035 15.384 6.39685C15.3656 6.25335 15.4048 6.10839 15.493 5.99371C17.2977 3.64215 21.1695 1.00074 29.3672 1.77183C29.5122 1.78561 29.6459 1.85644 29.7387 1.96875C29.8315 2.08105 29.8759 2.22562 29.8621 2.37066C29.8483 2.5157 29.7775 2.64933 29.6652 2.74214C29.5529 2.83496 29.4083 2.87936 29.2633 2.86558C21.5687 2.14371 17.9977 4.50621 16.3625 6.69371C16.3077 6.75463 16.24 6.80248 16.1643 6.83372C16.0886 6.86495 16.0068 6.87878 15.925 6.87418ZM8.09922 22.2031C8.01105 22.2029 7.92422 22.1815 7.84614 22.1405C7.76806 22.0996 7.70103 22.0404 7.65078 21.9679C5.18437 18.446 6.24531 15.9523 7.26797 13.5187L7.33359 13.3656C7.36814 13.2839 7.42204 13.2119 7.49064 13.1556C7.55923 13.0994 7.64047 13.0608 7.72734 13.0429C7.81476 13.0246 7.90532 13.028 7.99112 13.0528C8.07691 13.0776 8.15534 13.123 8.21953 13.1851L9.41719 14.3554C9.84375 12.3429 10.9375 7.8859 12.7914 5.92261C12.8817 5.82748 13.0032 5.76797 13.1337 5.75492C13.2642 5.74187 13.395 5.77615 13.5023 5.85152C13.7703 6.03746 15.143 7.03277 15.3016 8.03902C15.3123 8.11012 15.309 8.18264 15.2917 8.25245C15.2745 8.32226 15.2436 8.38799 15.201 8.44588C15.1583 8.50377 15.1047 8.55269 15.0431 8.58985C14.9816 8.62701 14.9133 8.65169 14.8422 8.66246C14.7711 8.67323 14.6986 8.66989 14.6288 8.65264C14.5589 8.63538 14.4932 8.60455 14.4353 8.56189C14.3774 8.51923 14.3285 8.46559 14.2914 8.40403C14.2542 8.34246 14.2295 8.27418 14.2187 8.20308C14.0091 7.73505 13.6788 7.33115 13.2617 7.03277C11.3203 9.58121 10.3086 15.4656 10.2977 15.5312C10.2808 15.6292 10.2376 15.7207 10.1726 15.796C10.1076 15.8712 10.0233 15.9273 9.92884 15.9582C9.83436 15.9892 9.73323 15.9938 9.63634 15.9715C9.53944 15.9493 9.45044 15.901 9.3789 15.832L8.02265 14.514C7.12578 16.7015 6.58984 18.5445 8.53672 21.3226C8.57868 21.3814 8.60859 21.4479 8.62471 21.5183C8.64083 21.5887 8.64285 21.6616 8.63065 21.7328C8.61844 21.804 8.59226 21.872 8.55361 21.933C8.51496 21.994 8.46461 22.0468 8.40547 22.0882C8.31749 22.1569 8.21063 22.1969 8.09922 22.2031Z" fill="#CCBE27"/>
<path d="M19.0969 18.4843H19.0203L16.2859 18.1015C16.1719 18.0847 16.066 18.0323 15.9835 17.9518C15.901 17.8713 15.8461 17.7667 15.8266 17.6531C15.8075 17.5396 15.8248 17.4231 15.8758 17.32C15.9269 17.2169 16.0092 17.1325 16.1109 17.0789C16.1383 17.0789 18.7141 15.7117 19.9391 13.8414C20.6609 12.7476 21.2406 11.7797 21.6125 11.1398H20.0703C19.951 11.1386 19.8353 11.0984 19.7409 11.0253C19.6466 10.9522 19.5788 10.8502 19.5478 10.7349C19.5168 10.6197 19.5244 10.4974 19.5693 10.3869C19.6143 10.2763 19.6942 10.1835 19.7969 10.1226C21.1959 9.36811 22.536 8.50889 23.8055 7.55231C23.9097 7.39386 24.0046 7.22952 24.0898 7.06012C25.1003 5.08253 26.5637 3.37171 28.3609 2.06715C28.4779 1.983 28.6234 1.94843 28.7658 1.97096C28.9081 1.99349 29.0358 2.0713 29.1211 2.18746C29.1628 2.24657 29.1923 2.31337 29.208 2.38398C29.2237 2.45459 29.2253 2.52761 29.2126 2.59882C29.1998 2.67003 29.1731 2.738 29.134 2.79882C29.0948 2.85963 29.0439 2.91206 28.9844 2.95309C27.3204 4.15934 25.9686 5.74552 25.0414 7.57965C24.9341 7.79474 24.8136 8.00295 24.6805 8.20309C23.8813 8.90825 23.0064 9.52268 22.0719 10.0351H22.575C22.6699 10.0351 22.7632 10.0599 22.8456 10.1068C22.9281 10.1538 22.9969 10.2215 23.0453 10.3031C23.0933 10.3862 23.1186 10.4805 23.1186 10.5765C23.1186 10.6725 23.0933 10.7668 23.0453 10.85C23.0125 10.9156 22.1867 12.425 20.8578 14.4375C20.0708 15.5388 19.0861 16.4846 17.9539 17.2265L19.157 17.3961C19.3021 17.4062 19.4371 17.4736 19.5325 17.5833C19.6279 17.693 19.6758 17.8362 19.6656 17.9812C19.6555 18.1263 19.5881 18.2613 19.4784 18.3567C19.3686 18.4521 19.2255 18.5 19.0805 18.4898L19.0969 18.4843ZM12.0312 24.0023C11.2724 23.994 10.5154 23.9264 9.76719 23.8C9.69537 23.7888 9.62645 23.7637 9.56436 23.7259C9.50227 23.6881 9.44823 23.6385 9.40531 23.5799C9.3624 23.5212 9.33147 23.4547 9.31427 23.3841C9.29707 23.3134 9.29394 23.2401 9.30508 23.1683C9.31621 23.0965 9.34138 23.0276 9.37914 22.9655C9.41691 22.9034 9.46654 22.8494 9.52519 22.8065C9.58384 22.7635 9.65037 22.7326 9.72098 22.7154C9.79159 22.6982 9.8649 22.6951 9.93672 22.7062C12.6711 23.1382 14.6945 22.9578 16.8219 20.7648C17.1187 20.4622 17.3998 20.1446 17.6641 19.8132C17.7543 19.7006 17.8854 19.6281 18.0288 19.6117C18.1723 19.5953 18.3164 19.6363 18.4297 19.7257C18.4867 19.7701 18.5343 19.8253 18.5699 19.8881C18.6054 19.951 18.6282 20.0202 18.6368 20.0919C18.6455 20.1636 18.6398 20.2363 18.6202 20.3058C18.6006 20.3753 18.5675 20.4402 18.5227 20.4968C18.2602 20.825 17.9758 21.1695 17.6094 21.525C16.9155 22.3185 16.057 22.9512 15.0936 23.3791C14.1303 23.8069 13.0852 24.0196 12.0312 24.0023ZM26.9008 30.8984H21.5906C21.4456 30.8984 21.3065 30.8408 21.2039 30.7382C21.1014 30.6357 21.0437 30.4966 21.0437 30.3515C21.0437 30.2065 21.1014 30.0674 21.2039 29.9648C21.3065 29.8623 21.4456 29.8047 21.5906 29.8047H26.9008C27.0458 29.8047 27.1849 29.8623 27.2875 29.9648C27.39 30.0674 27.4477 30.2065 27.4477 30.3515C27.4477 30.4966 27.39 30.6357 27.2875 30.7382C27.1849 30.8408 27.0458 30.8984 26.9008 30.8984ZM22.6789 33.3593H5.68203C5.53699 33.3593 5.39789 33.3017 5.29533 33.1992C5.19277 33.0966 5.13515 32.9575 5.13515 32.8125C5.13515 32.6674 5.19277 32.5283 5.29533 32.4258C5.39789 32.3232 5.53699 32.2656 5.68203 32.2656H22.6789C22.8239 32.2656 22.963 32.3232 23.0656 32.4258C23.1682 32.5283 23.2258 32.6674 23.2258 32.8125C23.2258 32.9575 23.1682 33.0966 23.0656 33.1992C22.963 33.3017 22.8239 33.3593 22.6789 33.3593Z" fill="#CCBE27"/>
</svg>
