<svg width="27" height="21" viewBox="0 0 27 21" fill="none" xmlns="http://www.w3.org/2000/svg">
<path d="M5.5 5.79995C5.5 5.58778 5.58428 5.38429 5.73431 5.23427C5.88434 5.08424 6.08782 4.99995 6.3 4.99995H17.5C17.7122 4.99995 17.9157 5.08424 18.0657 5.23427C18.2157 5.38429 18.3 5.58778 18.3 5.79995C18.3 6.01212 18.2157 6.21561 18.0657 6.36564C17.9157 6.51567 17.7122 6.59995 17.5 6.59995H6.3C6.08782 6.59995 5.88434 6.51567 5.73431 6.36564C5.58428 6.21561 5.5 6.01212 5.5 5.79995ZM14.3 9.79995C14.0878 9.79995 13.8843 9.88424 13.7343 10.0343C13.5843 10.1843 13.5 10.3878 13.5 10.6C13.5 10.8121 13.5843 11.0156 13.7343 11.1656C13.8843 11.3157 14.0878 11.4 14.3 11.4H17.5C17.7122 11.4 17.9157 11.3157 18.0657 11.1656C18.2157 11.0156 18.3 10.8121 18.3 10.6C18.3 10.3878 18.2157 10.1843 18.0657 10.0343C17.9157 9.88424 17.7122 9.79995 17.5 9.79995H14.3ZM13.5 15.4C13.5 15.1878 13.5843 14.9843 13.7343 14.8343C13.8843 14.6842 14.0878 14.6 14.3 14.6H17.5C17.7122 14.6 17.9157 14.6842 18.0657 14.8343C18.2157 14.9843 18.3 15.1878 18.3 15.4C18.3 15.6121 18.2157 15.8156 18.0657 15.9656C17.9157 16.1157 17.7122 16.2 17.5 16.2H14.3C14.0878 16.2 13.8843 16.1157 13.7343 15.9656C13.5843 15.8156 13.5 15.6121 13.5 15.4ZM6.3 9.79995C6.08782 9.79995 5.88434 9.88424 5.73431 10.0343C5.58428 10.1843 5.5 10.3878 5.5 10.6V15.4C5.5 15.6121 5.58428 15.8156 5.73431 15.9656C5.88434 16.1157 6.08782 16.2 6.3 16.2H11.1C11.3122 16.2 11.5157 16.1157 11.6657 15.9656C11.8157 15.8156 11.9 15.6121 11.9 15.4V10.6C11.9 10.3878 11.8157 10.1843 11.6657 10.0343C11.5157 9.88424 11.3122 9.79995 11.1 9.79995H6.3ZM7.1 14.6V11.4H10.3V14.6H7.1ZM0.699997 3.39995C0.699997 2.55126 1.03714 1.73733 1.63726 1.13721C2.23737 0.537093 3.0513 0.199951 3.9 0.199951H19.9C20.7487 0.199951 21.5626 0.537093 22.1627 1.13721C22.7629 1.73733 23.1 2.55126 23.1 3.39995V4.99995C23.9487 4.99995 24.7626 5.33709 25.3627 5.93721C25.9629 6.53733 26.3 7.35126 26.3 8.19995V17C26.3 18.0608 25.8786 19.0782 25.1284 19.8284C24.3783 20.5785 23.3609 21 22.3 21H4.7C3.63913 21 2.62172 20.5785 1.87157 19.8284C1.12142 19.0782 0.699997 18.0608 0.699997 17V3.39995ZM21.5 3.39995C21.5 2.9756 21.3314 2.56864 21.0314 2.26858C20.7313 1.96852 20.3243 1.79995 19.9 1.79995H3.9C3.47565 1.79995 3.06868 1.96852 2.76863 2.26858C2.46857 2.56864 2.3 2.9756 2.3 3.39995V17C2.3 17.6365 2.55285 18.2469 3.00294 18.697C3.45303 19.1471 4.06348 19.4 4.7 19.4H22.3C22.9365 19.4 23.547 19.1471 23.9971 18.697C24.4471 18.2469 24.7 17.6365 24.7 17V8.19995C24.7 7.7756 24.5314 7.36864 24.2314 7.06858C23.9313 6.76852 23.5243 6.59995 23.1 6.59995V17C23.1 17.2121 23.0157 17.4156 22.8657 17.5656C22.7157 17.7157 22.5122 17.7999 22.3 17.7999C22.0878 17.7999 21.8843 17.7157 21.7343 17.5656C21.5843 17.4156 21.5 17.2121 21.5 17V3.39995Z" fill="#61616B"/>
</svg>
