<svg width="32" height="32" viewBox="0 0 32 32" fill="none" xmlns="http://www.w3.org/2000/svg">
<path d="M17.9292 2.38424C17.713 2.11511 17.3197 2.0723 17.0505 2.28842C16.7814 2.50461 16.7385 2.89799 16.9547 3.16711L26.2437 14.7305C26.4602 15 26.8536 15.0422 27.1224 14.8264C27.3915 14.6102 27.4344 14.2168 27.2182 13.9477L17.9292 2.38424ZM29.5588 11.4561L20.8668 0.635798C20.6506 0.366673 20.2572 0.32386 19.9881 0.539985C19.7189 0.756173 19.6761 1.14955 19.8923 1.41867L28.5843 12.2389C28.8008 12.5084 29.1942 12.5506 29.4629 12.3347C29.7321 12.1185 29.7749 11.7252 29.5588 11.4561ZM15.6868 26.0402C15.3417 26.0402 15.0618 26.32 15.0618 26.6652V30.6858H11.9368V21.9889C11.9368 21.6438 11.6569 21.3639 11.3118 21.3639C10.9667 21.3639 10.6868 21.6438 10.6868 21.9889V31.3108C10.6868 31.6559 10.9667 31.9358 11.3118 31.9358H15.6868C16.0319 31.9358 16.3118 31.6559 16.3118 31.3108V26.6652C16.3118 26.32 16.0319 26.0402 15.6868 26.0402ZM15.6868 17.8495C15.3417 17.8495 15.0618 18.1294 15.0618 18.4745V24.1652C15.0618 24.5103 15.3417 24.7902 15.6868 24.7902C16.0319 24.7902 16.3118 24.5103 16.3118 24.1652V18.4745C16.3118 18.1294 16.0319 17.8495 15.6868 17.8495ZM13.5049 16.2527L14.0328 15.8287C14.3019 15.6125 14.3448 15.2191 14.1286 14.95C13.9124 14.6809 13.519 14.638 13.2499 14.8542L12.7221 15.2782C12.4529 15.4944 12.4101 15.8877 12.6263 16.1569C12.8428 16.4262 13.2362 16.4685 13.5049 16.2527Z" fill="#B354DC"/>
<path d="M28.9074 3.07793C26.1198 -0.392261 21.0289 -0.947511 17.5588 1.84011C15.8806 3.18824 14.8354 5.08961 14.5948 7.21799L13.5324 8.07136C12.8837 8.59255 12.7169 9.49418 13.0937 10.2035L7.33662 14.828C7.0675 15.0441 7.02462 15.4376 7.24081 15.7067C7.45706 15.9759 7.85044 16.0187 8.1195 15.8025L13.8526 11.1972C14.0032 11.3847 17.3109 15.5024 17.7337 16.0287L8.19219 23.6931C7.58656 24.1796 6.70262 24.0833 6.216 23.4776L4.09594 20.8382C3.60925 20.2326 3.70562 19.3487 4.31131 18.8619L6.17131 17.3682C6.44044 17.1521 6.48337 16.7587 6.26725 16.4896C6.05106 16.2204 5.65769 16.1776 5.38856 16.3936L3.52844 17.8874C2.5385 18.6828 2.28375 20.0204 2.78762 21.0876L1.95031 21.7602C1.21425 22.3514 1.09694 23.4256 1.68831 24.1619L2.4515 25.1119C3.043 25.8482 4.12075 25.9622 4.85312 25.3739L5.69044 24.7012C6.62112 25.4211 7.98281 25.4647 8.97506 24.6675L18.5402 16.9842C19.1429 17.4994 20.0581 17.5442 20.717 17.015L21.7789 16.162C23.8771 16.3826 25.9659 15.7954 27.6697 14.4266C31.1478 11.6325 31.7018 6.55643 28.9074 3.07793ZM4.07037 24.3992C3.87344 24.5574 3.58431 24.526 3.426 24.3289L2.66287 23.3789C2.50425 23.1814 2.53556 22.8933 2.73312 22.7346L3.51262 22.1084L4.84981 23.773L4.07037 24.3992ZM19.9341 16.0404C19.7369 16.1988 19.4488 16.1676 19.2903 15.9702C13.8299 9.17224 14.5777 10.1037 14.245 9.68961C14.0868 9.49268 14.1176 9.20461 14.3152 9.0458L15.095 8.41943L20.7138 15.4141L19.9341 16.0404ZM21.9204 14.9201L15.8376 7.3478C16.2652 3.62261 19.6224 0.944489 23.354 1.35124C27.1022 1.76018 29.8052 5.12424 29.3964 8.87311C28.9897 12.5999 25.6545 15.3062 21.9204 14.9201Z" fill="#B354DC"/>
</svg>
